<svg xmlns="http://www.w3.org/2000/svg" width="23.935" height="20.744" viewBox="0 0 23.935 20.744"><defs><style>.a{fill:#4ca64a;}</style></defs><path class="a" d="M11.967,8.377a3.6,3.6,0,0,1,3.59,3.59,3.6,3.6,0,0,1-3.59,3.59,3.6,3.6,0,0,1-3.59-3.59,3.6,3.6,0,0,1,3.59-3.59Zm8.776-5.186A3.076,3.076,0,0,1,23,4.126a3.071,3.071,0,0,1,.935,2.257v11.17a3.192,3.192,0,0,1-3.191,3.191H3.191a3.076,3.076,0,0,1-2.257-.935A3.071,3.071,0,0,1,0,17.552V6.383A3.076,3.076,0,0,1,.935,4.126a3.071,3.071,0,0,1,2.257-.935H5.984l.636-1.7A2.311,2.311,0,0,1,7.486.443,2.226,2.226,0,0,1,8.776,0h6.383a2.22,2.22,0,0,1,1.29.443A2.315,2.315,0,0,1,17.316,1.5l.636,1.7ZM11.967,17.552a5.377,5.377,0,0,0,3.945-1.64,5.382,5.382,0,0,0,1.64-3.945,5.375,5.375,0,0,0-1.64-3.945,5.38,5.38,0,0,0-3.945-1.64,5.38,5.38,0,0,0-3.945,1.64,5.375,5.375,0,0,0-1.64,3.945,5.382,5.382,0,0,0,1.64,3.945A5.377,5.377,0,0,0,11.967,17.552Z"/></svg>